<?xml version='1.0' encoding='utf-8'?>
<svg xmlns="http://www.w3.org/2000/svg" width="24" height="24" viewBox="-11.04 -11.040000000000001 46.08 46.08" fill="none">
  <rect x="-11.04" y="-11.040000000000001" width="46.08" height="46.08" fill="orange"/>
  <path d="M10.25 0H5.75C5.33579 0 5 0.335787 5 0.75V17.25C5 17.6642 5.33579 18 5.75 18H10.25C10.6642 18 11 17.6642 11 17.25V0.75C11 0.335786 10.6642 0 10.25 0Z" fill="#0C131B"/>
  <path d="M18.25 0H13.75C13.3358 0 13 0.335786 13 0.75V23.25C13 23.6642 13.3358 24 13.75 24H18.25C18.6642 24 19 23.6642 19 23.25V0.75C19 0.335786 18.6642 0 18.25 0Z" fill="#0C131B"/>
</svg>
